<svg xmlns="http://www.w3.org/2000/svg" width="256" height="256" viewBox="0 0 100 100"><rect width="100" height="100" rx="20" fill="#4b2fff"></rect><path fill="#fff" d="M21.29 62.70L21.29 62.70Q24.70 62.70 26.46 61.14Q28.22 59.59 28.22 57.14L28.22 57.14Q28.22 55.00 26.87 53.67Q25.52 52.35 22.61 51.48L22.61 51.48L18.18 50.15Q14.91 49.18 13.05 47.30Q11.19 45.41 11.19 42.20L11.19 42.20Q11.19 40.26 11.93 38.70Q12.67 37.15 14.04 36.08Q15.42 35.01 17.33 34.42Q19.25 33.83 21.64 33.83L21.64 33.83Q23.68 33.83 25.44 34.16Q27.20 34.50 28.50 35.08Q29.80 35.67 30.52 36.38Q31.23 37.10 31.23 37.86L31.23 37.86Q31.23 38.58 30.88 39.09Q30.52 39.60 29.96 39.90L29.96 39.90Q28.63 38.88 26.51 38.12Q24.40 37.35 21.80 37.35L21.80 37.35Q18.79 37.35 17.08 38.63Q15.37 39.90 15.37 42.20L15.37 42.20Q15.37 43.98 16.59 45.10Q17.82 46.23 20.67 47.04L20.67 47.04L23.79 47.96Q27.81 49.13 30.14 51.25Q32.46 53.37 32.46 57.14L32.46 57.14Q32.46 61.17 29.55 63.67Q26.64 66.17 21.29 66.17L21.29 66.17Q18.94 66.17 17.03 65.76Q15.12 65.35 13.76 64.69Q12.41 64.03 11.67 63.23Q10.93 62.44 10.93 61.68L10.93 61.68Q10.93 60.81 11.47 60.23Q12.00 59.64 12.72 59.38L12.72 59.38Q13.28 59.95 14.10 60.53Q14.91 61.12 15.98 61.60Q17.05 62.09 18.38 62.39Q19.71 62.70 21.29 62.70ZM58.67 38.02L50.26 38.02L50.26 65.40Q50 65.50 49.46 65.63Q48.93 65.76 48.37 65.76L48.37 65.76Q46.12 65.76 46.12 63.87L46.12 63.87L46.12 38.02L36.59 38.02Q36.43 37.76 36.28 37.33Q36.13 36.89 36.13 36.33L36.13 36.33Q36.13 35.47 36.54 34.98Q36.94 34.50 37.71 34.50L37.71 34.50L59.79 34.50Q59.95 34.75 60.10 35.18Q60.25 35.62 60.25 36.13L60.25 36.13Q60.25 37.00 59.84 37.51Q59.44 38.02 58.67 38.02L58.67 38.02ZM87.84 42.30L87.84 42.30Q87.84 44.49 86.80 46.35Q85.75 48.22 83.30 49.23L83.30 49.23Q86.21 50.20 87.64 52.27Q89.07 54.34 89.07 56.94L89.07 56.94Q89.07 61.58 85.73 63.82Q82.39 66.07 76.21 66.07L76.21 66.07Q74.07 66.07 72.06 65.89Q70.04 65.71 68.21 65.20L68.21 65.20Q66.06 64.59 66.06 62.85L66.06 62.85L66.06 36.74Q66.06 35.26 67.75 34.80L67.75 34.80Q69.48 34.29 71.42 34.11Q73.36 33.94 75.65 33.94L75.65 33.94Q81.42 33.94 84.63 35.98Q87.84 38.02 87.84 42.30ZM77.08 51.07L70.15 51.07L70.15 62.09Q71.37 62.34 72.98 62.50Q74.58 62.65 76.21 62.65L76.21 62.65Q80.45 62.65 82.64 61.25Q84.83 59.84 84.83 56.83L84.83 56.83Q84.83 54.18 82.87 52.63Q80.91 51.07 77.08 51.07L77.08 51.07ZM70.15 37.81L70.15 47.70L77.08 47.70Q80.29 47.70 81.95 46.28Q83.61 44.85 83.61 42.40L83.61 42.40Q83.61 37.35 75.65 37.35L75.65 37.35Q73.87 37.35 72.57 37.48Q71.27 37.61 70.15 37.81L70.15 37.81Z"></path></svg>